<svg xmlns="http://www.w3.org/2000/svg" viewBox="0 0 48 48">
  <rect width="48" height="48" rx="11" fill="#0e2a5e"/>
  <g fill="#ffffff">
    <rect x="6" y="6" width="6" height="6" rx="1.4"/>
    <rect x="6" y="13.5" width="6" height="6" rx="1.4"/>
    <rect x="13.5" y="13.5" width="6" height="6" rx="1.4"/>
    <rect x="21" y="13.5" width="6" height="6" rx="1.4"/>
    <rect x="6" y="21" width="6" height="6" rx="1.4"/>
    <rect x="13.5" y="21" width="6" height="6" rx="1.4"/>
    <rect x="21" y="21" width="6" height="6" rx="1.4"/>
    <rect x="28.5" y="21" width="6" height="6" rx="1.4"/>
    <rect x="6" y="28.5" width="6" height="6" rx="1.4"/>
    <rect x="13.5" y="28.5" width="6" height="6" rx="1.4"/>
    <rect x="21" y="28.5" width="6" height="6" rx="1.4"/>
    <rect x="6" y="36" width="6" height="6" rx="1.4"/>
  </g>
  <rect x="36" y="21" width="6" height="6" rx="1.4" fill="#d32436"/>
</svg>
